<svg width="200" height="201" viewBox="0 0 200 201" fill="none" xmlns="http://www.w3.org/2000/svg">
<g clip-path="url(#clip0_289_1139)">
<path d="M49.3539 119.378C49.44 115.854 49.5474 112.327 49.6122 108.8C49.6691 105.808 47.4532 103.958 45.9618 101.757C45.0829 100.454 44.144 99.1845 43.1661 97.9528C40.0153 93.9818 40.6825 89.4414 41.3949 85.0082C44.5079 65.5764 48.9782 46.4712 55.1663 27.7701C56.1733 24.7203 58.1431 22.7658 61.059 22.1746C67.3649 20.8843 73.7421 19.9526 80.0875 18.8672C81.039 18.7067 81.9829 18.495 82.9348 18.309C83.4614 18.3934 83.9921 18.4821 84.5229 18.5708C87.0472 19.7105 89.8237 20.4878 92.0309 22.0612C97.1613 25.7209 102.651 25.8189 108.375 24.4391C115.017 22.8388 121.603 21.0333 128.242 19.4031C133.167 18.1946 136.353 19.4888 137.905 24.2576C139.635 29.574 141.133 35.0997 141.639 40.6406C142.39 48.8454 142.136 57.1376 142.444 65.387C142.484 66.4474 143.096 67.6738 143.824 68.4848C148.05 73.1654 152.409 77.7246 156.665 82.3759C157.62 83.42 158.403 84.6404 159.16 85.8434C161.106 88.9368 161.918 92.1496 160.117 95.6432C155.516 104.591 151.328 113.774 146.276 122.455C138.419 135.947 130.2 149.238 121.689 162.324C117.909 168.134 113.159 173.334 108.632 178.626C106.488 181.135 105.721 181.243 103.016 179.381C98.4563 176.241 93.851 173.053 89.7816 169.32C78.7197 159.171 67.9866 148.669 57.0154 138.432C52.9679 134.652 50.0037 130.441 49.5425 124.773C49.471 122.98 49.4082 121.179 49.3539 119.378ZM133.764 56.8097L133.749 56.6563L133.734 56.8136C133.701 57.0642 133.667 57.3063 133.634 57.557C133.702 57.558 133.77 57.559 133.834 57.5642C133.812 57.3085 133.786 57.0569 133.764 56.8097ZM111.912 157.413C112.206 157.43 112.544 157.554 112.776 157.447C117.396 155.327 121.525 152.719 123.73 147.776C124.628 145.755 126.16 144.024 127.313 142.1C128.019 140.927 128.558 139.649 129.453 137.841C126.73 137.741 124.616 137.663 122.497 137.581C118.927 137.196 115.349 136.811 111.779 136.427C110.384 136.372 108.908 136.588 107.602 136.212C104.182 135.221 102.205 136.813 100.7 139.575C100.411 140.098 100.047 140.578 99.7495 141.101C98.8144 142.739 97.6253 143.13 96.0991 141.852C91.8149 138.252 87.5351 134.639 83.2508 131.038C85.3379 130.656 87.4291 130.278 89.5162 129.896C91.0421 131.2 92.6242 132.441 94.0852 133.816C96.5284 136.125 97.0609 136.094 98.7084 133.195C103.297 125.115 107.987 117.089 112.427 108.935C115.534 103.226 118.353 97.368 121.197 91.519C122.668 88.4888 122.323 86.7769 119.694 84.6822C117.771 83.1513 115.671 81.7753 113.474 80.6787C109.143 78.5164 106.53 75.3408 105.9 70.4067C105.286 65.5921 104.356 60.8154 103.388 56.0594C103.197 55.1286 102.285 53.7658 101.517 53.6311C98.9145 53.1628 96.2373 53.1531 93.5839 52.9692C91.4864 52.9085 89.3803 52.8476 87.2828 52.7868C83.2842 52.9024 79.2856 53.0179 75.2871 53.1334C69.4112 53.2681 68.6546 53.4825 67.8474 57.7058C66.2789 65.9317 65.0158 74.2218 63.8633 82.5219C63.7063 83.6391 64.7618 85.0891 65.5893 86.1229C66.1953 86.8852 67.3088 87.2889 68.2559 87.72C70.0359 88.5337 70.783 89.8217 70.7454 91.7962C70.6569 96.0599 70.7132 100.326 70.7056 104.586C70.7363 105.681 70.7712 106.779 70.8019 107.874C70.6862 110.234 71.5522 112.12 73.26 113.784C76.2519 116.701 79.1054 119.761 82.0152 122.758C81.7225 123.554 81.434 124.354 81.128 125.188C76.9589 122.441 76.9589 122.441 75.1252 123.827C74.5733 123.44 73.9652 123.108 73.4739 122.653C70.5684 119.946 67.3292 117.353 66.6544 113.176C66.2017 110.394 66.3295 107.501 66.4012 104.663C66.4774 101.519 67.0645 98.365 66.885 95.2423C66.7964 93.7427 65.6449 92.1678 64.6249 90.9099C63.8597 89.975 62.5697 89.4154 61.4462 88.8284C59.8453 87.9918 58.6357 86.8928 58.2198 85.0734C58.648 80.8658 59.0803 76.6625 59.5331 72.2212C57.037 72.6313 54.6788 72.9327 52.3683 73.4562C51.843 73.5719 51.2393 74.3931 51.0943 74.9868C50.002 79.4954 49.058 84.0443 47.9869 88.5575C47.4832 90.674 47.7998 92.5814 49.0126 94.3317C51.2715 97.5914 53.5779 100.814 55.867 104.044C59.5079 108.554 59.1171 113.975 59.2945 119.265C55.0729 117.768 55.8567 122.342 54.3926 123.193C54.6582 124.815 54.8874 126.01 55.0314 127.212C55.111 127.873 54.9088 128.598 55.0955 129.214C55.2379 129.663 55.8121 129.978 56.1896 130.358C56.5267 130.014 56.9949 129.727 57.1542 129.312C57.3356 128.851 57.3272 128.264 57.2325 127.76C56.8146 125.498 57.7573 124.499 60.0069 124.638C60.4553 127.424 60.344 130.351 62.3739 132.692C63.6964 134.219 64.7903 135.95 66.1994 137.384C70.2419 141.496 74.3925 145.503 78.5041 149.548C83.6498 154.191 88.8993 158.725 93.8936 163.532C95.6354 165.205 97.1871 165.334 99.0944 164.439C101.863 163.143 104.595 161.774 107.343 160.431C108.865 159.424 110.386 158.416 111.912 157.413ZM62.5015 57.9802C62.8177 57.3209 63.2442 56.6887 63.4204 55.9975C64.3297 52.3546 66.5888 50.4044 70.3591 50.1833C74.0739 49.9657 77.7851 49.7098 81.4964 49.4453C82.3699 49.3858 83.2324 49.2027 84.1026 49.0794C87.3175 49.28 90.5375 49.4254 93.747 49.7069C96.6547 49.9626 99.5564 50.3332 102.445 50.7419C105.01 51.1032 106.661 52.8642 107.506 55.073C109.079 59.191 110.212 63.4769 111.752 67.6114C112.583 69.8498 112.431 72.6143 114.857 74.1101C117.692 76.9782 120.557 79.8255 123.353 82.7314C125.105 84.5535 126.763 86.4678 128.463 88.3402C122.045 103.582 113.659 117.807 105.218 132.512C108.533 132.297 111.264 132.128 113.995 131.952C117.469 131.918 120.946 131.914 124.421 131.812C124.953 131.798 125.471 131.338 125.994 131.082C129.289 132.16 133.426 130.451 134.86 127.356C137.858 120.896 140.97 114.485 143.719 107.915C144.91 105.064 145.723 101.918 146.002 98.8444C146.46 93.8199 143.462 89.8683 140.699 86.1158C137.29 81.4813 133.33 77.2472 129.801 72.6961C128.272 70.724 126.466 68.5096 126.079 66.1926C125.132 60.5345 124.681 54.756 124.527 49.016C124.359 42.8374 122.414 37.3093 119.706 31.9019C118.73 29.9466 117.508 29.6817 115.53 30.176C111.852 31.088 108.105 31.7393 104.383 32.4931C101.348 32.7718 98.6294 31.8038 95.9981 30.4157C93.6708 29.1938 91.3567 27.9423 88.9545 26.8938C87.5336 26.2684 85.9059 25.5165 84.4608 25.6612C78.2713 26.2765 72.1157 27.1944 65.9528 28.0271C64.0804 28.2847 63.207 29.4934 62.721 31.274C60.6998 38.7313 58.5684 46.1615 56.5174 53.6141C55.645 56.7766 54.8658 59.966 54.0129 63.2522C56.2186 63.4848 58.1522 63.6963 60.0903 63.8867C60.3793 63.9165 60.6782 63.8528 61.0445 63.8327C61.5377 61.8522 62.0218 59.9141 62.5015 57.9802ZM133.137 55.4299C133.312 55.4197 133.487 55.4095 133.666 55.3951C133.747 55.0558 133.914 54.7092 133.898 54.3813C133.651 50.351 133.553 46.3016 133.067 42.3019C132.566 38.1742 131.81 34.0598 130.903 29.9985C130.444 27.9358 127.953 27.4181 125.226 28.4973C122.935 29.4042 124.157 30.8184 124.652 32.1665C127.32 39.4589 129.966 46.7552 132.625 54.056C132.785 54.5138 132.965 54.9677 133.137 55.4299Z" fill="#172230"/>
<path d="M114.857 74.1016C112.436 72.6101 112.583 69.8413 111.752 67.6029C110.212 63.4684 109.088 59.1826 107.506 55.0645C106.662 52.8557 105.015 51.099 102.445 50.7333C99.5565 50.3247 96.6505 49.9583 93.7471 49.6984C90.5419 49.4127 87.3177 49.2715 84.1027 49.0708C84.6575 43.2051 85.1402 37.3169 90.0678 33.0863C92.313 35.252 94.9676 35.9296 97.9101 34.977C100.104 34.2645 102.229 33.3254 104.383 32.4846C108.101 31.7264 111.844 31.0793 115.531 30.1675C117.509 29.6731 118.731 29.9381 119.706 31.8934C122.414 37.3008 124.359 42.8288 124.528 49.0075C124.685 54.7518 125.141 60.5261 126.079 66.184C126.466 68.501 128.268 70.7197 129.801 72.6876C133.33 77.2388 137.295 81.4686 140.7 86.1073C143.462 89.8597 146.46 93.8114 146.003 98.8358C145.723 101.909 144.911 105.055 143.719 107.907C140.971 114.468 137.854 120.883 134.86 127.347C133.427 130.442 129.281 132.152 125.994 131.073C127.429 128.119 128.873 125.165 130.305 122.206C133.896 114.777 137.441 107.325 141.1 99.9298C142.552 96.9929 142.949 94.0405 140.773 91.4886C136.564 86.54 132.196 81.7041 127.677 77.0404C125.438 74.7344 123.19 72.7134 123.448 69.0907C123.576 67.3219 123.22 65.5034 122.961 63.7246C122.002 57.2066 121.034 50.6883 119.955 44.1941C119.834 43.4644 118.953 42.8683 118.422 42.2092C118.016 42.914 117.325 43.5934 117.25 44.3287C116.646 50.3682 116.131 56.4134 115.646 62.4632C115.333 66.332 115.118 70.215 114.857 74.1016Z" fill="#212D3F"/>
<path d="M114.857 74.1015C115.114 70.2191 115.329 66.3361 115.637 62.4545C116.122 56.4047 116.637 50.3595 117.241 44.32C117.312 43.5804 118.007 42.9053 118.413 42.2005C118.944 42.8596 119.821 43.4599 119.946 44.1854C121.029 50.684 122.002 57.198 122.953 63.7159C123.212 65.4947 123.568 67.3132 123.44 69.082C123.182 72.7133 125.429 74.7257 127.668 77.0317C132.192 81.6997 136.552 86.5356 140.765 91.4799C142.937 94.0275 142.54 96.98 141.092 99.9211C137.437 107.32 133.892 114.772 130.296 122.198C128.865 125.156 127.421 128.11 125.986 131.064C125.463 131.32 124.941 131.777 124.413 131.794C120.938 131.896 117.46 131.9 113.987 131.934C119.484 120.842 125.052 109.789 130.448 98.6531C133.244 92.8843 133.097 92.7502 128.451 88.3272C126.75 86.4548 125.093 84.5404 123.341 82.7184C120.557 79.8169 117.692 76.9696 114.857 74.1015Z" fill="#48546B"/>
<path d="M83.2552 131.034C87.5352 134.638 91.8192 138.247 96.0992 141.852C97.6253 143.138 98.8102 142.743 99.7495 141.101C100.051 140.582 100.416 140.102 100.7 139.574C102.205 136.813 104.178 135.224 107.603 136.211C108.908 136.588 110.384 136.372 111.779 136.426C109.106 141.614 106.421 146.788 103.777 151.989C103.462 152.614 103.022 153.578 103.275 154.029C104.511 156.227 105.961 158.3 107.339 160.418C104.591 161.761 101.859 163.13 99.0904 164.425C97.1789 165.317 95.6314 165.192 93.8896 163.519C88.8995 158.716 83.6458 154.178 78.5001 149.535C78.5126 143.784 78.5378 138.039 78.529 132.292C78.5311 131.862 78.3246 131.434 78.2202 131.006C78.3766 129.923 78.5331 128.84 78.6939 127.753C80.2099 128.856 81.7347 129.943 83.2552 131.034Z" fill="#2B3749"/>
<path d="M78.2159 131.011C78.3244 131.442 78.5267 131.867 78.5247 132.296C78.5335 138.043 78.5125 143.793 78.4958 149.539C74.3885 145.49 70.2336 141.487 66.191 137.375C64.782 135.941 63.6925 134.206 62.3656 132.684C60.3357 130.342 60.447 127.416 59.9986 124.629C59.7612 122.838 59.5237 121.047 59.2819 119.26C59.1045 113.971 59.4953 108.55 55.8544 104.039C56.1686 100.63 56.4105 97.2158 56.8267 93.8168C57.185 90.8851 57.7471 87.982 58.2116 85.0646C58.6231 86.8882 59.8327 87.9872 61.4379 88.8196C62.5614 89.4065 63.8514 89.9662 64.6166 90.9011C65.6409 92.1549 66.7881 93.7339 66.8767 95.2335C67.0605 98.352 66.4734 101.506 66.3929 104.655C66.3212 107.493 66.1977 110.389 66.6462 113.167C67.3209 117.344 70.5601 119.937 73.4656 122.645C73.9569 123.099 74.565 123.431 75.1169 123.818C75.0482 123.86 74.9023 123.934 74.9023 123.934C74.9023 123.934 76.7307 123.818 78.2159 131.011Z" fill="#48546B"/>
<path d="M104.387 32.4801C102.234 33.321 100.109 34.2601 97.9147 34.9726C94.9679 35.9294 92.3176 35.2475 90.068 33.0861C88.1601 32.5812 86.27 31.7319 84.3389 31.6353C79.6051 31.3909 75.2586 33.1613 70.8646 34.6927C68.8152 35.4073 67.5621 36.6743 66.9921 38.6707C65.7846 42.9051 64.5346 47.1389 63.4797 51.4181C62.9544 53.5556 62.8151 55.7883 62.5018 57.98C62.0177 59.9181 61.5337 61.8561 61.0492 63.8282C60.6785 63.8526 60.3839 63.912 60.0949 63.8822C58.1611 63.6877 56.2275 63.4761 54.0175 63.2477C54.8661 59.9657 55.6497 56.7722 56.5221 53.6097C58.5772 46.1614 60.7086 38.7312 62.7256 31.2695C63.2074 29.4847 64.0851 28.2717 65.9574 28.0227C72.1203 27.19 78.2759 26.2721 84.4654 25.6568C85.919 25.5122 87.5424 26.2683 88.9591 26.8893C91.357 27.942 93.6754 29.1893 96.0027 30.4112C98.6341 31.7909 101.353 32.7589 104.387 32.4801Z" fill="#718195"/>
<path d="M62.5018 57.98C62.8151 55.7883 62.9544 53.5557 63.4797 51.4182C64.5346 47.1389 65.7845 42.9137 66.9921 38.6708C67.5621 36.6744 68.8152 35.4073 70.8646 34.6927C75.2544 33.157 79.6009 31.3866 84.3389 31.6353C86.2656 31.7361 88.1601 32.5813 90.0681 33.0861C85.1447 37.3211 84.6578 43.2049 84.103 49.0706C83.2329 49.194 82.3661 49.3728 81.4969 49.4366C77.7856 49.701 74.0744 49.957 70.3595 50.1746C66.5893 50.3957 64.3301 52.3459 63.4208 55.9888C63.2488 56.6843 62.8138 57.3163 62.5018 57.98Z" fill="#48546B"/>
<path d="M128.464 88.3316C133.11 92.7545 133.257 92.8886 130.461 98.6575C125.065 109.794 119.496 120.847 113.999 131.939C111.268 132.115 108.537 132.292 105.223 132.499C113.659 117.798 122.045 103.573 128.464 88.3316Z" fill="#273346"/>
<path d="M58.2203 85.0647C57.7516 87.9778 57.1937 90.8852 56.8354 93.8169C56.4192 97.216 56.1773 100.63 55.8631 104.039C53.5741 100.8 51.2678 97.5784 49.0087 94.3271C47.7959 92.5769 47.4751 90.6652 47.983 88.553C49.0584 84.0357 50.0022 79.4952 51.0904 74.9823C51.2353 74.3886 51.8391 73.5674 52.3644 73.4517C54.6749 72.9282 57.0374 72.6226 59.5292 72.2167C59.0764 76.658 58.6484 80.8571 58.2203 85.0647Z" fill="#718195"/>
<path d="M107.339 160.427C105.961 158.308 104.511 156.235 103.275 154.037C103.022 153.587 103.462 152.623 103.777 151.997C106.421 146.797 109.106 141.622 111.779 136.435C115.349 136.819 118.923 137.2 122.497 137.589C118.965 144.198 115.436 150.803 111.912 157.413C110.386 158.416 108.865 159.424 107.339 160.427Z" fill="#48546B"/>
<path d="M111.912 157.413C115.441 150.808 118.969 144.194 122.497 137.589C124.616 137.663 126.734 137.745 129.457 137.845C128.553 139.653 128.02 140.927 127.317 142.104C126.161 144.024 124.637 145.755 123.734 147.78C121.529 152.724 117.404 155.336 112.78 157.451C112.545 157.554 112.206 157.43 111.912 157.413Z" fill="#273346"/>
<path d="M133.137 55.4299C132.961 54.9718 132.785 54.5223 132.621 54.0602C129.966 46.7637 127.316 39.4631 124.648 32.1707C124.153 30.8226 122.935 29.4042 125.222 28.5015C127.949 27.4223 130.44 27.94 130.899 30.0027C131.805 34.064 132.558 38.1741 133.063 42.3061C133.549 46.3058 133.646 50.3552 133.893 54.3854C133.914 54.7178 133.743 55.06 133.661 55.3993C133.491 55.4053 133.316 55.4155 133.137 55.4299Z" fill="#212D3F"/>
<path d="M86.6644 126.449C87.6179 127.595 88.5671 128.746 89.5207 129.892C87.4336 130.274 85.3424 130.652 83.2554 131.034C81.7349 129.943 80.2102 128.848 78.6897 127.757C77.4316 126.479 76.1777 125.204 74.9196 123.926C74.9925 123.889 75.0611 123.856 75.1341 123.81C76.9678 122.424 76.9678 122.424 81.1369 125.171C81.4429 124.337 81.7357 123.541 82.0242 122.741C82.574 123.264 83.1197 123.783 83.6696 124.306C84.3565 124.772 85.0434 125.246 85.7303 125.711C86.0416 125.963 86.353 126.206 86.6644 126.449Z" fill="#172230"/>
<path d="M59.2818 119.26C59.5193 121.051 59.7611 122.838 59.9986 124.629C57.7488 124.498 56.8105 125.493 57.2241 127.751C57.3188 128.255 57.3272 128.842 57.1459 129.304C56.9866 129.718 56.514 130.009 56.1812 130.349C55.7995 129.973 55.2252 129.658 55.0872 129.205C54.8962 128.594 55.0984 127.869 55.0231 127.204C54.8791 126.001 54.6498 124.806 54.3843 123.185C55.844 122.338 55.0602 117.763 59.2818 119.26Z" fill="#172230"/>
<path d="M133.764 56.8097C133.786 57.0569 133.812 57.3084 133.834 57.5556C133.766 57.5546 133.698 57.5536 133.634 57.5484C133.667 57.2978 133.701 57.0556 133.734 56.805L133.764 56.8097Z" fill="#212D3F"/>
<path d="M133.738 56.8093L133.753 56.652L133.764 56.8097L133.738 56.8093Z" fill="#212D3F"/>
<path d="M70.6647 108.054C74.4013 110.399 77.9534 113.133 81.9145 114.983C87.3001 117.497 91.2132 116.827 94.0384 111.71C97.4801 105.483 100.884 99.2247 103.899 92.7823C106.852 86.4837 105.318 83.1324 99.3929 79.1205C97.2604 77.6759 96.473 76.2341 96.3351 73.7506C95.983 67.3223 95.3028 60.9191 94.7505 54.5006C97.1636 55.6812 99.497 57.065 100.021 59.9373C100.552 62.8694 100.751 65.8646 101.073 68.8318C101.444 72.2468 101.509 75.6061 105.414 77.4941C107.849 78.6707 109.921 80.7103 111.941 82.5917C114.868 85.3122 115.064 85.877 113.27 89.4217C108.241 99.38 103.123 109.299 97.8154 119.108C96.7652 121.051 94.9221 122.781 93.0526 124.001C91.1228 125.262 88.7145 125.78 86.5184 126.629C86.207 126.386 85.8956 126.143 85.5842 125.9C84.8973 125.434 84.2104 124.96 83.5235 124.495C82.9736 123.972 82.428 123.453 81.8781 122.93C78.9683 119.933 76.1148 116.873 73.1229 113.955C71.4108 112.296 70.5448 110.41 70.6647 108.054Z" fill="#1C73B5"/>
<path d="M86.5226 126.633C88.7229 125.789 91.1355 125.267 93.0568 124.006C94.9306 122.782 96.7694 121.055 97.8196 119.113C103.127 109.303 108.245 99.3845 113.274 89.4261C115.068 85.8814 114.872 85.3167 111.945 82.5962C109.925 80.7148 107.849 78.6708 105.418 77.4985C101.509 75.6148 101.448 72.2597 101.077 68.8363C100.755 65.869 100.556 62.8738 100.025 59.9418C99.5011 57.0694 97.1677 55.6857 94.7547 54.5051C94.3145 54.0517 93.8827 53.5984 93.4425 53.1449C96.0958 53.3288 98.773 53.3385 101.375 53.8068C102.139 53.9457 103.056 55.3043 103.246 56.2351C104.215 60.9911 105.149 65.7721 105.759 70.5825C106.388 75.5165 109.002 78.6921 113.333 80.8544C115.53 81.951 117.629 83.327 119.552 84.8579C122.182 86.9526 122.527 88.6645 121.056 91.6947C118.216 97.5395 115.392 103.402 112.286 109.111C107.841 117.269 103.16 125.295 98.5669 133.37C96.9195 136.27 96.387 136.301 93.9437 133.992C92.4871 132.612 90.9049 131.372 89.3748 130.072C88.4254 128.93 87.4719 127.784 86.5226 126.633Z" fill="#0D5380"/>
<path d="M87.1414 52.9625C86.9046 56.892 86.9312 60.8595 86.3419 64.7369C85.936 67.4381 83.6165 68.5744 80.8771 68.1636C78.5752 67.8147 77.4783 66.2874 77.5509 63.3898C77.579 62.3474 77.7604 61.3072 77.8693 60.2703C77.978 59.2503 78.091 58.2262 78.2873 56.4584C77.1783 57.1912 76.2507 57.4627 76.0555 57.9961C73.988 63.6863 72.1283 69.4349 71.8291 75.5726C71.7312 77.5973 72.6556 78.4112 74.4075 78.8158C77.835 79.6156 81.2443 80.4916 84.6717 81.2913C89.7492 82.4772 90.4276 83.2363 90.218 88.4985C89.9541 95.1305 88.1007 101.318 84.6159 107C83.527 106.371 82.4338 105.746 81.2182 105.047C81.7825 102.284 82.4543 99.4508 82.9265 96.5846C83.352 93.9987 81.9831 92.1567 79.0711 91.3263C78.4252 94.7135 77.8347 98.0972 77.0915 101.445C76.9548 102.056 76.203 102.525 75.7397 103.059C75.2394 102.345 74.5553 101.692 74.2988 100.901C74.1197 100.345 74.5393 99.6022 74.647 98.9355C75.3145 94.9485 76.0713 90.9671 76.6029 86.9611C77.2256 82.2626 76.7985 81.7796 72.1857 80.8304C69.2365 80.2208 68.2258 79.1971 68.4101 76.2245C68.5946 73.2434 68.958 70.248 69.6012 67.3333C70.6999 62.3907 71.4609 57.2558 75.1372 53.309C79.1442 53.1936 83.1428 53.078 87.1414 52.9625Z" fill="#7FCDEA"/>
<path d="M75.1456 53.309C71.4694 57.2559 70.7083 62.3907 69.6096 67.3333C68.9622 70.2437 68.603 73.2435 68.4186 76.2246C68.2342 79.1971 69.2449 80.2209 72.1942 80.8305C76.807 81.7796 77.234 82.2627 76.6114 86.9612C76.0798 90.9672 75.323 94.9486 74.6555 98.9356C74.5435 99.598 74.1239 100.341 74.3072 100.901C74.5637 101.692 75.2479 102.345 75.7481 103.059C76.2158 102.521 76.9676 102.051 77.1 101.445C77.8431 98.0973 78.4294 94.7178 79.0796 91.3264C81.9915 92.1568 83.3605 93.9988 82.935 96.5847C82.4628 99.4509 81.791 102.284 81.2267 105.047C82.4422 105.746 83.5311 106.375 84.6244 107C82.7309 108.393 80.6044 108.562 78.4825 107.846C75.8058 106.938 73.2006 105.801 70.5683 104.766C70.5717 100.501 70.5154 96.2355 70.6038 91.9718C70.6458 89.9932 69.8901 88.7051 68.1144 87.8957C67.1673 87.4646 66.0538 87.0608 65.4478 86.2984C64.6245 85.269 63.569 83.819 63.7218 82.6975C64.8743 74.3974 66.1415 66.1117 67.7059 57.8814C68.5089 53.6538 69.2697 53.4437 75.1456 53.309Z" fill="#F6F9F6"/>
<path d="M88.712 108.065C88.7502 107.491 88.6488 106.868 88.8437 106.351C90.4 102.13 91.9479 97.9011 93.6693 93.7381C93.9562 93.0485 95.051 92.6986 95.7694 92.1857C96.182 93.0686 97.141 94.1341 96.914 94.8075C95.2485 99.7971 92.9704 104.475 89.2915 108.307C89.0969 108.228 88.9066 108.144 88.712 108.065Z" fill="#1C73B5"/>
<path d="M76.2043 75.6116C75.8507 74.4785 75.4051 73.8036 75.5849 73.4445C75.8435 72.9418 76.6149 72.3019 77.0736 72.3683C80.153 72.8096 83.254 73.2384 86.2294 74.091C87.0771 74.3334 87.5254 75.9702 88.1576 76.9756C87.1146 77.2752 85.9933 77.9779 85.0425 77.8022C82.0116 77.2382 79.0368 76.343 76.2043 75.6116Z" fill="#7FCDEA"/>
<path d="M99.377 88.557C98.2121 88.4632 97.5701 88.4153 96.9324 88.3634C97.0407 87.369 97.0177 86.3343 97.342 85.4154C97.4397 85.1359 98.4987 85.1984 99.1172 85.1096C99.1917 86.1195 99.2704 87.1252 99.377 88.557Z" fill="#1C73B5"/>
<path d="M70.6644 108.054C70.6337 106.959 70.5988 105.861 70.5682 104.766C73.2046 105.806 75.8013 106.942 78.4824 107.846C80.6043 108.562 82.7308 108.394 84.6242 107C88.1088 101.326 89.9581 95.1348 90.2263 88.4987C90.4359 83.2365 89.7532 82.4815 84.68 81.2915C81.2569 80.4876 77.8433 79.6157 74.4158 78.816C72.6597 78.407 71.7395 77.5974 71.8374 75.5728C72.1324 69.4308 73.992 63.6907 76.0638 57.9963C76.259 57.4628 77.1865 57.1999 78.2956 56.4586C78.1034 58.2307 77.9906 59.2463 77.8776 60.2704C77.7643 61.3116 77.5788 62.3475 77.5592 63.39C77.4909 66.2834 78.5835 67.8149 80.8854 68.1638C83.6204 68.5787 85.9401 67.4339 86.3502 64.7371C86.9394 60.8596 86.9129 56.8921 87.1496 52.9626C89.2472 53.0234 91.3532 53.0843 93.4508 53.145C93.891 53.5985 94.3227 54.0518 94.763 54.5052C95.3111 60.9193 95.9955 67.3269 96.3475 73.7551C96.4854 76.2387 97.2644 77.6803 99.4054 79.1251C105.331 83.137 106.865 86.4882 103.911 92.7868C100.897 99.2207 97.4926 105.487 94.0509 111.715C91.2257 116.832 87.3169 117.498 81.9269 114.988C77.949 113.129 74.3969 110.395 70.6644 108.054ZM88.7117 108.065C88.9064 108.144 89.0967 108.228 89.2913 108.307C92.9659 104.471 95.2484 99.7886 96.9138 94.8075C97.1365 94.1383 96.1818 93.0686 95.7691 92.1857C95.0465 92.6943 93.9518 93.0442 93.6691 93.7381C91.952 97.8969 90.4041 102.126 88.8434 106.351C88.6528 106.863 88.75 107.491 88.7117 108.065ZM76.204 75.6117C79.0366 76.343 82.0072 77.2339 85.0422 77.8022C85.9973 77.9823 87.1144 77.2752 88.1574 76.9756C87.5251 75.9788 87.0811 74.3377 86.2292 74.0911C83.2537 73.2384 80.1486 72.8053 77.0733 72.3683C76.6146 72.3019 75.8391 72.9375 75.5847 73.4445C75.4049 73.8037 75.8504 74.4785 76.204 75.6117ZM99.3769 88.5571C99.266 87.1295 99.1915 86.1196 99.117 85.1097C98.4942 85.2027 97.4352 85.1402 97.3418 85.4155C97.0175 86.3344 97.0406 87.3691 96.9323 88.3635C97.57 88.4155 98.212 88.4633 99.3769 88.5571Z" fill="#49A9DF"/>
<mask id="mask0_289_1139" style="mask-type:alpha" maskUnits="userSpaceOnUse" x="78" y="56" width="62" height="88">
<path d="M90.7247 66.1806C94.0854 56.3763 106.5 53.394 113.947 60.6017L132.138 78.2063C141.166 86.9432 141.928 101.164 133.886 110.816L109.76 139.771C105.598 144.765 98.033 145.072 93.4804 140.431L79.5778 126.257C77.5312 124.171 79.1084 120.657 82.0275 120.8C84.0844 120.9 85.7032 119.067 85.3481 117.038L84.65 113.049C84.4535 111.926 84.558 110.772 84.9526 109.703L90.5845 94.4494C92.0531 90.4718 92.4417 86.176 91.7107 81.9994L90.172 73.2073C89.7605 70.856 89.9506 68.4387 90.7247 66.1806Z" fill="#9D1010"/>
</mask>
<g mask="url(#mask0_289_1139)">
<path d="M70.6645 108.054C74.4012 110.399 77.9533 113.133 81.9143 114.983C87.3 117.497 91.2131 116.827 94.0383 111.71C97.48 105.483 100.884 99.2247 103.899 92.7823C106.852 86.4837 105.318 83.1325 99.3928 79.1206C97.2603 77.676 96.4728 76.2342 96.335 73.7506C95.9829 67.3224 95.3027 60.9191 94.7504 54.5007C97.1634 55.6813 99.4969 57.0651 100.021 59.9374C100.552 62.8694 100.75 65.8646 101.073 68.8319C101.444 72.2468 101.509 75.6062 105.414 77.4941C107.849 78.6708 109.921 80.7104 111.941 82.5918C114.867 85.3123 115.063 85.877 113.27 89.4217C108.241 99.3801 103.123 109.299 97.8153 119.108C96.7651 121.051 94.922 122.782 93.0525 124.001C91.1227 125.262 88.7144 125.78 86.5183 126.629C86.2069 126.386 85.8955 126.143 85.5841 125.9C84.8972 125.434 84.2103 124.96 83.5234 124.495C82.9735 123.972 82.4279 123.453 81.878 122.93C78.9682 119.933 76.1146 116.873 73.1228 113.955C71.4106 112.296 70.5446 110.41 70.6645 108.054Z" fill="#9F1919"/>
<path d="M86.5225 126.633C88.7228 125.789 91.1354 125.267 93.0566 124.006C94.9305 122.782 96.7692 121.055 97.8195 119.113C103.127 109.303 108.245 99.3845 113.274 89.4262C115.068 85.8815 114.872 85.3167 111.945 82.5962C109.925 80.7149 107.849 78.6709 105.418 77.4986C101.509 75.6149 101.448 72.2598 101.077 68.8364C100.755 65.8691 100.556 62.8739 100.025 59.9418C99.501 57.0695 97.1676 55.6858 94.7546 54.5052C94.3143 54.0517 93.8826 53.5984 93.4424 53.145C96.0957 53.3289 98.7729 53.3385 101.375 53.8068C102.139 53.9458 103.056 55.3044 103.246 56.2351C104.215 60.9911 105.149 65.7722 105.759 70.5825C106.388 75.5166 109.002 78.6921 113.333 80.8545C115.53 81.951 117.629 83.3271 119.552 84.858C122.181 86.9526 122.526 88.6646 121.056 91.6948C118.216 97.5396 115.392 103.402 112.286 109.111C107.841 117.269 103.16 125.295 98.5668 133.37C96.9193 136.27 96.3868 136.301 93.9436 133.992C92.487 132.612 90.9048 131.372 89.3746 130.072C88.4253 128.93 87.4717 127.784 86.5225 126.633Z" fill="#791A1A"/>
<path d="M87.1412 52.9625C86.9045 56.892 86.931 60.8595 86.3418 64.737C85.9359 67.4381 83.6163 68.5744 80.877 68.1637C78.5751 67.8148 77.4782 66.2875 77.5508 63.3899C77.5789 62.3475 77.7602 61.3073 77.8692 60.2703C77.9779 59.2504 78.0908 58.2263 78.2872 56.4585C77.1782 57.1913 76.2506 57.4627 76.0554 57.9962C73.9879 63.6864 72.1282 69.435 71.829 75.5727C71.731 77.5973 72.6555 78.4112 74.4074 78.8159C77.8349 79.6156 81.2442 80.4917 84.6716 81.2914C89.7491 82.4773 90.4275 83.2364 90.2179 88.4986C89.954 95.1305 88.1006 101.318 84.6158 107C83.5269 106.371 82.4337 105.746 81.2181 105.047C81.7824 102.284 82.4542 99.4509 82.9264 96.5847C83.3519 93.9988 81.983 92.1568 79.071 91.3264C78.4251 94.7135 77.8346 98.0973 77.0914 101.445C76.9547 102.056 76.2029 102.525 75.7396 103.059C75.2393 102.345 74.5552 101.692 74.2987 100.901C74.1196 100.345 74.5392 99.6023 74.6469 98.9356C75.3144 94.9486 76.0712 90.9672 76.6028 86.9611C77.2255 82.2626 76.7984 81.7796 72.1856 80.8305C69.2364 80.2209 68.2257 79.1971 68.41 76.2245C68.5944 73.2435 68.9579 70.248 69.601 67.3333C70.6998 62.3907 71.4608 57.2559 75.1371 53.309C79.1441 53.1936 83.1427 53.0781 87.1412 52.9625Z" fill="#7FCDEA"/>
<path d="M75.1455 53.3091C71.4693 57.256 70.7082 62.3908 69.6095 67.3334C68.9621 70.2438 68.6029 73.2436 68.4184 76.2246C68.2341 79.1972 69.2448 80.2209 72.194 80.8305C76.8068 81.7797 77.2339 82.2627 76.6112 86.9612C76.0797 90.9672 75.3228 94.9487 74.6553 98.9357C74.5434 99.598 74.1238 100.341 74.3071 100.901C74.5636 101.692 75.2478 102.345 75.748 103.059C76.2156 102.521 76.9674 102.051 77.0998 101.445C77.843 98.0973 78.4293 94.7178 79.0795 91.3265C81.9914 92.1569 83.3604 93.9989 82.9349 96.5848C82.4627 99.4509 81.7909 102.284 81.2266 105.047C82.4421 105.746 83.531 106.375 84.6242 107C82.7308 108.394 80.6043 108.562 78.4824 107.846C75.8057 106.938 73.2005 105.801 70.5682 104.766C70.5715 100.501 70.5153 96.2356 70.6037 91.9719C70.6457 89.9932 69.89 88.7051 68.1142 87.8957C67.1671 87.4646 66.0537 87.0608 65.4477 86.2985C64.6244 85.2691 63.5689 83.8191 63.7216 82.6976C64.8742 74.3974 66.1414 66.1117 67.7058 57.8815C68.5088 53.6539 69.2696 53.4437 75.1455 53.3091Z" fill="#F6F9F6"/>
<path d="M88.7118 108.065C88.7501 107.491 88.6486 106.868 88.8435 106.351C90.3998 102.131 91.9478 97.9012 93.6692 93.7382C93.9561 93.0486 95.0508 92.6987 95.7692 92.1858C96.1819 93.0687 97.1409 94.1342 96.9139 94.8076C95.2484 99.7972 92.9702 104.475 89.2914 108.307C89.0968 108.228 88.9065 108.144 88.7118 108.065Z" fill="#1C73B5"/>
<path d="M76.2042 75.6117C75.8506 74.4785 75.405 73.8037 75.5848 73.4445C75.8434 72.9418 76.6147 72.302 77.0735 72.3683C80.1529 72.8096 83.2538 73.2384 86.2293 74.0911C87.077 74.3334 87.5253 75.9703 88.1575 76.9756C87.1145 77.2752 85.9932 77.978 85.0423 77.8022C82.0115 77.2382 79.0367 76.343 76.2042 75.6117Z" fill="#7FCDEA"/>
<path d="M99.377 88.557C98.2121 88.4632 97.5701 88.4154 96.9324 88.3634C97.0407 87.369 97.0176 86.3343 97.3419 85.4154C97.4397 85.136 98.4986 85.1984 99.1171 85.1096C99.1916 86.1195 99.2704 87.1253 99.377 88.557Z" fill="#1C73B5"/>
<path d="M70.6643 108.054C70.6336 106.959 70.5987 105.861 70.568 104.766C73.2045 105.806 75.8012 106.942 78.4822 107.846C80.6042 108.562 82.7306 108.394 84.6241 107C88.1087 101.326 89.958 95.1349 90.2261 88.4987C90.4357 83.2365 89.7531 82.4816 84.6799 81.2915C81.2567 80.4876 77.8431 79.6158 74.4157 78.8161C72.6595 78.4071 71.7393 77.5975 71.8373 75.5728C72.1322 69.4308 73.9919 63.6907 76.0637 57.9963C76.2588 57.4629 77.1864 57.1999 78.2955 56.4586C78.1033 58.2307 77.9905 59.2463 77.8775 60.2705C77.7642 61.3117 77.5787 62.3475 77.559 63.3901C77.4908 66.2835 78.5834 67.8149 80.8852 68.1639C83.6203 68.5788 85.9399 67.434 86.35 64.7371C86.9393 60.8597 86.9128 56.8922 87.1495 52.9627C89.2471 53.0234 91.3531 53.0843 93.4507 53.1451C93.8909 53.5985 94.3226 54.0518 94.7629 54.5053C95.311 60.9194 95.9953 67.3269 96.3474 73.7552C96.4853 76.2387 97.2643 77.6804 99.4052 79.1251C105.331 83.137 106.865 86.4883 103.911 92.7869C100.896 99.2208 97.4925 105.487 94.0508 111.715C91.2256 116.832 87.3168 117.498 81.9268 114.988C77.9489 113.129 74.3967 110.395 70.6643 108.054ZM88.7116 108.065C88.9062 108.144 89.0966 108.228 89.2912 108.307C92.9658 104.471 95.2483 99.7886 96.9137 94.8076C97.1364 94.1383 96.1816 93.0687 95.769 92.1858C95.0464 92.6944 93.9516 93.0443 93.669 93.7382C91.9519 97.897 90.4039 102.126 88.8433 106.351C88.6527 106.863 88.7499 107.491 88.7116 108.065ZM76.2039 75.6117C79.0365 76.3431 82.0071 77.2339 85.0421 77.8023C85.9972 77.9824 87.1142 77.2753 88.1572 76.9757C87.525 75.9788 87.081 74.3378 86.2291 74.0911C83.2536 73.2385 80.1485 72.8053 77.0732 72.3684C76.6145 72.302 75.8389 72.9376 75.5846 73.4446C75.4048 73.8037 75.8503 74.4785 76.2039 75.6117ZM99.3767 88.5571C99.2658 87.1296 99.1914 86.1197 99.1169 85.1098C98.4941 85.2027 97.4351 85.1403 97.3417 85.4156C97.0174 86.3344 97.0404 87.3691 96.9321 88.3636C97.5698 88.4155 98.2118 88.4633 99.3767 88.5571Z" fill="#8A0808"/>
</g>
<path d="M106.951 110.632C107.193 110.131 107.453 109.63 107.677 109.125C108.905 106.36 110.174 103.59 111.336 100.828C112.399 98.2996 113.559 96.2459 114.963 94.7468C116.109 93.5245 117.25 92.3435 118.374 91.2405C118.666 90.9538 118.889 91.027 119.143 90.9382C118.958 91.4321 118.806 91.9288 118.583 92.4134C116.821 96.2592 114.698 99.5112 112.644 102.81C111.242 105.061 109.778 107.12 108.336 109.223C107.907 109.849 107.461 110.321 107.021 110.865C106.998 110.788 106.974 110.712 106.951 110.632Z" fill="#C63F3F"/>
<path d="M102.28 118.156C102.349 118.012 102.434 117.873 102.487 117.722C102.777 116.898 103.1 116.082 103.333 115.241C103.546 114.47 103.975 113.927 104.771 113.686C105.42 113.49 106.078 113.31 106.742 113.159C106.914 113.119 107.127 113.212 107.322 113.246C107.3 113.403 107.307 113.57 107.25 113.712C106.801 114.844 105.873 115.624 105.018 116.443C104.435 117.002 103.744 117.463 103.084 117.948C102.888 118.092 102.634 118.167 102.406 118.274C102.364 118.235 102.322 118.196 102.28 118.156Z" fill="#C63F3F"/>
<path d="M74.9152 123.93C76.1733 125.209 77.4272 126.483 78.6853 127.761C78.5288 128.844 78.3723 129.927 78.2116 131.015C76.1801 130.512 74.0552 130.579 72.8152 128.075C72.4185 127.269 69.7707 127.574 68.1562 127.372C68.105 127.673 68.0536 127.975 68.0024 128.276C69.3432 128.56 70.6926 128.844 72.5045 129.224C70.0938 131.061 67.3367 130.986 66.0643 129.52C64.8004 128.063 64.8913 125.366 66.2606 123.717C67.5607 122.153 69.1344 122.521 72.9331 125.276C73.5953 124.826 74.2574 124.376 74.9152 123.93Z" fill="#48546B"/>
<path d="M85.7302 125.72C85.0432 125.254 84.3564 124.78 83.6694 124.315C84.3564 124.78 85.039 125.25 85.7302 125.72Z" fill="#0D5380"/>
<path d="M83.5533 57.2365L89.6554 59.5531C90.5785 59.9036 91.3394 60.5831 91.7916 61.4609L97.0981 71.7615C97.66 72.8524 98.6916 73.6249 99.8965 73.8573L105.988 75.0321C107.871 75.3951 109.231 77.0427 109.231 78.9597L109.231 81.6869C109.231 83.477 108.041 85.0491 106.319 85.5361L99.2705 87.5287C97.829 87.9362 96.736 89.1151 96.4384 90.5833L93.5864 104.655C93.4567 105.295 93.4857 105.957 93.6708 106.583L97.1494 118.352C97.6225 119.953 99.249 120.919 100.881 120.568C103.613 119.981 105.727 122.939 104.287 125.333L102.545 128.233C101.718 129.608 100.151 130.356 98.5625 130.134L84.3653 128.15C82.9182 127.947 81.6965 126.972 81.1786 125.606L78.3815 118.227C78.1807 117.697 78.0947 117.131 78.1293 116.565L78.8461 104.827L79.5777 92.8464C79.6027 92.4384 79.5649 92.029 79.4658 91.6324L79.4014 91.3751C79.0574 89.999 78.0103 88.9081 76.6495 88.5078L76.1728 88.3676C75.7779 88.2515 75.4033 88.075 75.0621 87.8446L74.8967 87.7327C73.5613 86.8305 72.8978 85.2149 73.2136 83.6345L74.633 76.5315C74.7246 76.0731 75.2048 75.8058 75.6426 75.9693C76.4645 76.2763 77.0652 75.1755 76.3622 74.6504L75.1765 73.7647C74.943 73.5904 74.8003 73.3204 74.7876 73.0294L74.344 62.8261C74.2724 61.1805 75.2169 59.6593 76.7235 58.9936L80.5169 57.3174C81.479 56.8922 82.5699 56.8632 83.5533 57.2365Z" fill="#172230"/>
<path d="M83.9157 60.3151L88.5877 62.0914C89.6772 62.5056 90.5318 63.3745 90.928 64.4707L94.4465 74.2058C95.0192 75.7903 96.5234 76.8462 98.2083 76.8462L103.089 76.8462C105.824 76.8462 107.752 79.5288 106.88 82.1208L106.826 82.283C106.405 83.5343 105.394 84.4974 104.124 84.857L97.7477 86.6624C96.3065 87.0705 95.214 88.2496 94.9169 89.7177L92.5036 101.643C92.3783 102.262 92.4015 102.902 92.5711 103.51L96.9136 119.087C97.1639 119.985 97.7908 120.73 98.6324 121.131C101.185 122.346 101.047 126.025 98.4102 127.046L94.9225 128.396C93.9832 128.76 92.9414 128.755 92.005 128.384L84.7132 125.495C83.7843 125.127 83.0268 124.425 82.5897 123.526L80.2525 118.722C79.9606 118.122 79.8234 117.458 79.8535 116.792L81.0174 91.0365C81.0968 89.2782 80.0176 87.6746 78.3589 87.0861L77.4376 86.7593C75.5889 86.1034 74.4885 84.2037 74.8395 82.2738L75.3148 79.66C75.472 78.796 76.093 78.0892 76.9295 77.8222L78.0453 77.4661C79.9959 76.8435 79.9144 74.0559 77.9307 73.5485C77.0958 73.3349 76.4853 72.6195 76.4058 71.7613L75.8355 65.6072C75.6769 63.8964 76.6286 62.2755 78.1997 61.5802L80.8754 60.3961C81.8387 59.9699 82.9311 59.9407 83.9157 60.3151Z" fill="#273346"/>
<path d="M76.923 80.9942L76.923 82.6895L83.1094 82.6895L83.1094 114.403C83.1094 116.664 83.5219 118.513 84.3467 119.952C85.1716 121.39 86.2026 122.52 87.4399 123.342C88.7803 124.164 90.2238 124.729 91.7704 125.038C93.317 125.346 94.8121 125.5 96.2556 125.5C98.3177 125.5 100.071 125.346 101.514 125.038C102.957 124.627 103.782 124.267 103.989 123.959L103.215 122.88L101.978 123.496C101.153 123.805 100.174 123.959 99.0394 123.959C97.2866 123.959 95.74 123.291 94.3996 121.955C93.1624 120.517 92.5437 117.537 92.5437 113.016L92.5437 82.6895L106.154 82.6895L106.154 80.9942L105.226 80.9942C100.689 80.9942 97.2351 80.0694 94.8636 78.22C92.5953 76.2677 90.9456 74.1614 89.9145 71.9009C88.9865 69.6405 88.471 67.5855 88.3679 65.7361L88.3679 62.8077L77.5417 62.8077C77.6448 63.938 78.1088 65.4278 78.9336 67.2773C79.7585 69.024 80.9442 70.8735 82.4908 72.8257C84.1405 74.6751 86.0995 76.3705 88.3679 77.9117C90.7393 79.4529 93.4201 80.4804 96.4102 80.9942L76.923 80.9942Z" fill="white"/>
<path fill-rule="evenodd" clip-rule="evenodd" d="M70.923 88.6895L70.923 74.9942L76.6069 74.9942C75.3731 73.2895 74.3258 71.5708 73.5081 69.8394L73.4804 69.7806L73.4539 69.7212C72.5366 67.6644 71.759 65.4626 71.5665 63.3528L70.9694 56.8077L94.3679 56.8077L94.3679 65.5433C94.4416 66.515 94.736 67.8202 95.4183 69.5078C96.0145 70.7739 97.024 72.1374 98.6489 73.5606C99.5869 74.2445 101.509 74.9942 105.226 74.9942L112.154 74.9942L112.154 88.6895L98.5437 88.6895L98.5437 113.016C98.5437 115.044 98.686 116.476 98.8824 117.422C98.9298 117.65 98.9755 117.826 99.0144 117.958C99.022 117.959 99.0303 117.959 99.0394 117.959C99.3855 117.959 99.6108 117.931 99.7398 117.908L105.114 115.23L111.286 123.841L108.976 127.295C108.268 128.353 107.402 128.962 106.98 129.236C106.482 129.558 105.995 129.793 105.613 129.96C104.848 130.293 103.991 130.571 103.157 130.808L102.964 130.863L102.767 130.905C100.785 131.329 98.5865 131.5 96.2556 131.5C94.384 131.5 92.4953 131.3 90.5976 130.922C88.3582 130.476 86.2496 129.651 84.3033 128.457L84.2104 128.4L84.1197 128.34C82.0201 126.945 80.3756 125.088 79.1417 122.936C77.6404 120.318 77.1094 117.346 77.1094 114.403L77.1094 88.6895L70.923 88.6895ZM83.1094 114.403C83.1094 116.664 83.5219 118.513 84.3467 119.952C85.1716 121.39 86.2026 122.52 87.4399 123.342C87.8024 123.565 88.1725 123.768 88.5501 123.953C89.3393 124.339 90.1615 124.643 91.0167 124.865C91.1456 124.898 91.2752 124.93 91.4056 124.96C91.5265 124.987 91.6481 125.013 91.7704 125.038C93.317 125.346 94.8121 125.5 96.2556 125.5C97.2564 125.5 98.1843 125.464 99.0394 125.391C99.3075 125.368 99.5683 125.342 99.822 125.312C100.427 125.241 100.991 125.149 101.514 125.038C101.861 124.939 102.171 124.843 102.447 124.751C102.492 124.735 102.537 124.72 102.58 124.705C102.921 124.586 103.203 124.472 103.425 124.363C103.597 124.279 103.732 124.197 103.832 124.118C103.902 124.064 103.954 124.011 103.989 123.959L103.215 122.88L101.978 123.496C101.742 123.585 101.494 123.66 101.233 123.723C101.204 123.73 101.175 123.737 101.146 123.743C100.516 123.887 99.8135 123.959 99.0394 123.959C98.0451 123.959 97.1172 123.744 96.2556 123.314C95.5983 122.986 94.9797 122.533 94.3996 121.955C93.8595 121.327 93.4373 120.406 93.133 119.19C92.7401 117.622 92.5437 115.564 92.5437 113.016L92.5437 82.6895L106.154 82.6895L106.154 80.9942L105.226 80.9942C101.927 80.9942 99.2009 80.5053 97.047 79.5275C96.9266 79.4728 96.808 79.4167 96.6912 79.359C96.5963 79.3121 96.5027 79.2643 96.4102 79.2154C95.8517 78.9203 95.3362 78.5885 94.8636 78.22C94.2826 77.7199 93.7422 77.2098 93.2423 76.6895C92.7104 76.1358 92.2244 75.5707 91.7844 74.9942C91.5245 74.6535 91.2806 74.3089 91.0527 73.9602C91.0331 73.9303 91.0137 73.9003 90.9944 73.8704C90.5801 73.2274 90.2201 72.571 89.9145 71.9009C89.8543 71.7542 89.7958 71.6084 89.739 71.4635C88.9214 69.3746 88.4643 67.4655 88.3679 65.7361L88.3679 62.8077L77.5417 62.8077C77.6448 63.938 78.1088 65.4278 78.9336 67.2773C79.1705 67.779 79.4372 68.2891 79.7336 68.8077C80.4693 70.0949 81.3884 71.4342 82.4908 72.8257C83.158 73.5737 83.8759 74.2965 84.6443 74.9942C84.7036 75.0479 84.7631 75.1016 84.823 75.1551C85.4115 75.681 86.0291 76.1925 86.6759 76.6895C87.2193 77.1071 87.7833 77.5145 88.3679 77.9117C88.6118 78.0702 88.859 78.2233 89.1094 78.371C90.193 79.0097 91.3377 79.5468 92.5437 79.9821C92.7486 80.0561 92.9553 80.1271 93.1637 80.1952C93.2061 80.209 93.2485 80.2227 93.2911 80.2363C94.2904 80.556 95.3301 80.8086 96.4102 80.9942L76.923 80.9942L76.923 82.6895L83.1094 82.6895L83.1094 114.403ZM100.813 118.962C100.815 118.961 100.816 118.96 100.817 118.96C100.82 118.959 100.821 118.958 100.821 118.958C100.821 118.958 100.819 118.959 100.813 118.962Z" fill="#172230"/>
</g>
<defs>
<clipPath id="clip0_289_1139">
<rect width="200" height="200" fill="white" transform="translate(0 0.5)"/>
</clipPath>
</defs>
</svg>
